PathFileType	4	(X/Y/Z)	/Users/itak/Documents/Research/Walk-IL/dataset/trc/00109_00007.trc
DataRate	CameraRate	NumFrames	NumMarkers	Units	OrigDataRate	OrigDataStartFrame	OrigNumFrames
100.000000	100.000000	4	53	mm	100.000000	144	579
Frame#	Time	RPSI			LPSI			L3			STRN			T10			C7			CLAV			RBAK			LBAK			LSHO			LUPA			LAEL			LAOL			LWTS			LWPS			LFRA			LIFD			LHPS			LHTS			RSHO			RUPA			RAEL			RAOL			RWTS			RWPS			RFRA			RIFD			RHTS			RHPS			RBHD			LFHD			RFHD			LBHD			LHIP			RHIP			RASI			LASI			LKNE			LTHI			LANK			LTIP			LTOE			LMT1			LMT5			LHEE			RKNE			RTHI			RANK			RTIP			RTOE			RMT1			RMT5			RHEE			
		X1	Y1	Z1	X2	Y2	Z2	X3	Y3	Z3	X4	Y4	Z4	X5	Y5	Z5	X6	Y6	Z6	X7	Y7	Z7	X8	Y8	Z8	X9	Y9	Z9	X10	Y10	Z10	X11	Y11	Z11	X12	Y12	Z12	X13	Y13	Z13	X14	Y14	Z14	X15	Y15	Z15	X16	Y16	Z16	X17	Y17	Z17	X18	Y18	Z18	X19	Y19	Z19	X20	Y20	Z20	X21	Y21	Z21	X22	Y22	Z22	X23	Y23	Z23	X24	Y24	Z24	X25	Y25	Z25	X26	Y26	Z26	X27	Y27	Z27	X28	Y28	Z28	X29	Y29	Z29	X30	Y30	Z30	X31	Y31	Z31	X32	Y32	Z32	X33	Y33	Z33	X34	Y34	Z34	X35	Y35	Z35	X36	Y36	Z36	X37	Y37	Z37	X38	Y38	Z38	X39	Y39	Z39	X40	Y40	Z40	X41	Y41	Z41	X42	Y42	Z42	X43	Y43	Z43	X44	Y44	Z44	X45	Y45	Z45	X46	Y46	Z46	X47	Y47	Z47	X48	Y48	Z48	X49	Y49	Z49	X50	Y50	Z50	X51	Y51	Z51	X52	Y52	Z52	X53	Y53	Z53	

145	1.44	638.6104125976562	1124.960205078125	-275.5050659179688	645.7172241210938	1126.091064453125	-409.7398986816406	636.402587890625	1157.897583007812	-345.1316528320312	844.0391845703125	1361.857421875	-336.2341613769531	593.7910766601562	1304.437377929688	-349.6352844238281	618.1622314453125	1597.987060546875	-364.0328979492188	803.7388305664062	1495.5654296875	-342.7079162597656	567.2896118164062	1411.814208984375	-278.7436218261719	616.5523071289062	1576.331298828125	-464.8095703125	708.01220703125	1565.12841796875	-527.7141723632812	694.0975952148438	1432.5126953125	-597.4495239257812	714.9269409179688	1213.357055664062	-614.7203369140625	644.2359619140625	1200.139892578125	-563.79833984375	819.9375610351562	961.5291137695312	-557.2725219726562	742.073486328125	931.3068237304688	-590.96337890625	735.4605712890625	1097.802978515625	-614.751220703125	834.1495971679688	769.1431884765625	-528.8328247070312	773.6754760742188	857.4744262695312	-588.14892578125	839.5505981445312	873.0764770507812	-565.3992309570312	663.596923828125	1580.972778320312	-178.9066619873047	643.2898559570312	1506.233276367188	-115.9048004150391	635.8110961914062	1211.108764648438	-101.7730331420898	643.2354736328125	1211.102416992188	-198.3386383056641	788.900390625	975.0267944335938	-95.03188323974609	711.7318725585938	954.2532348632812	-77.02701568603516	659.60595703125	1138.503784179688	-84.11925506591797	826.2139892578125	782.1475830078125	-106.6212005615234	821.9774169921875	868.2833251953125	-84.80278015136719	751.9598388671875	856.9295043945312	-66.85409545898438	647.4984741210938	1765.965087890625	-278.955078125	801.94189453125	1847.5625	-413.1833801269531	801.8409423828125	1852.311157226562	-283.3271179199219	637.4367065429688	1764.117553710938	-414.0838928222656	741.3526611328125	1037.482177734375	-511.7485961914062	760.5469970703125	1029.608520507812	-152.3966369628906	842.9574584960938	1104.652709960938	-202.3742370605469	847.7984008789062	1104.083984375	-467.9602355957031	758.6858520507812	537.1358642578125	-481.9600830078125	739.1677856445312	681.8328857421875	-509.8674621582031	643.5045166015625	33.91633987426758	-473.2845764160156	656.2662353515625	290.1701965332031	-509.0704956054688	873.6236572265625	34.33366012573242	-404.2362976074219	789.7796630859375	41.52325820922852	-376.5547790527344	770.2931518554688	31.10265731811523	-494.7708129882812	572.498291015625	37.57380294799805	-414.299560546875	740.0066528320312	538.0626831054688	-192.821533203125	773.732421875	817.0018920898438	-161.5358428955078	627.2598266601562	29.43259239196777	-216.6358032226562	709.7511596679688	406.3782958984375	-184.1491241455078	860.950927734375	40.90950393676758	-264.4926147460938	800.6717529296875	29.81901168823242	-307.6866760253906	760.7193603515625	37.24656677246094	-191.6698608398438	571.14404296875	32.28384399414062	-266.3413391113281	
146	1.45	638.0079956054688	1125.01513671875	-275.2983703613281	645.1231079101562	1126.196899414062	-409.5757141113281	635.72998046875	1157.989868164062	-344.9100036621094	843.4576416015625	1362.011962890625	-335.9010925292969	593.2499389648438	1304.565551757812	-349.4174499511719	617.66845703125	1598.14794921875	-363.7658996582031	803.178466796875	1495.718383789062	-342.4384765625	566.7792358398438	1412.011108398438	-278.4373168945312	616.1096801757812	1576.487915039062	-464.552978515625	707.53662109375	1565.2470703125	-527.428466796875	693.6819458007812	1432.618774414062	-597.1754150390625	714.5504760742188	1213.459350585938	-614.4451293945312	643.8427734375	1200.209716796875	-563.5513305664062	819.644775390625	961.6525268554688	-556.9691772460938	741.8488159179688	931.4479370117188	-590.75927734375	735.1488037109375	1097.945678710938	-614.5248413085938	833.9141235351562	769.27734375	-528.6427612304688	773.478759765625	857.67822265625	-587.9559936523438	839.3078002929688	873.2167358398438	-565.1331176757812	663.0491943359375	1581.152587890625	-178.5554046630859	642.8062744140625	1506.458618164062	-115.6261367797852	635.3250732421875	1211.323852539062	-101.4775466918945	642.6962890625	1211.33251953125	-198.0184478759766	788.298583984375	975.1465454101562	-94.84161376953125	711.125732421875	954.4266967773438	-76.79367065429688	659.0767822265625	1138.697143554688	-83.84870910644531	825.4974975585938	782.2520141601562	-106.4665222167969	821.283935546875	868.3814697265625	-84.66613006591797	751.3274536132812	857.0836791992188	-66.62934875488281	647.0905151367188	1766.130493164062	-278.7575073242188	801.6080322265625	1847.67578125	-412.8783264160156	801.4298706054688	1852.390747070312	-283.0213317871094	637.1123657226562	1764.286987304688	-413.8856506347656	740.7916870117188	1037.630249023438	-511.5335083007812	759.9080810546875	1029.713134765625	-152.1250762939453	842.2769775390625	1104.831176757812	-202.1066436767578	847.269287109375	1104.249145507812	-467.6434326171875	758.9456787109375	537.3123779296875	-482.0207214355469	739.1103515625	682.0093383789062	-509.7726745605469	643.5614624023438	34.0081787109375	-473.2579650878906	656.4508056640625	290.314453125	-509.0148620605469	873.7620239257812	34.14078903198242	-404.1824951171875	789.8287353515625	41.5438346862793	-376.5851440429688	770.3560180664062	31.05118370056152	-494.8761901855469	572.5800170898438	37.82486343383789	-414.2658386230469	740.0174560546875	538.1312255859375	-192.8259887695312	773.2972412109375	817.0911254882812	-161.345703125	627.3142700195312	29.5204906463623	-216.6945953369141	709.9164428710938	406.4064636230469	-184.1887359619141	861.0429077148438	40.73339462280273	-264.546142578125	800.7163696289062	29.74273681640625	-307.7236328125	760.7900390625	37.29654312133789	-191.7453155517578	571.21826171875	32.42348861694336	-266.3528442382812	
147	1.46	637.3239135742188	1125.062622070312	-275.0630798339844	644.4815063476562	1126.300415039062	-409.4126281738281	634.9818115234375	1158.071044921875	-344.6809692382812	842.828125	1362.182250976562	-335.5513610839844	592.650146484375	1304.72802734375	-349.1835021972656	617.14794921875	1598.328125	-363.4668579101562	802.57373046875	1495.885131835938	-342.1500854492188	566.2223510742188	1412.262817382812	-278.0956115722656	615.628662109375	1576.662109375	-464.259521484375	707.0260620117188	1565.37548828125	-527.1140747070312	693.2262573242188	1432.742919921875	-596.8638305664062	714.1539306640625	1213.591430664062	-614.1524047851562	643.4313354492188	1200.307495117188	-563.3009643554688	819.3340454101562	961.8030395507812	-556.654052734375	741.6068115234375	931.6203002929688	-590.54931640625	734.8250732421875	1098.12646484375	-614.293212890625	833.6681518554688	769.4382934570312	-528.4334106445312	773.26611328125	857.89404296875	-587.7569580078125	839.041015625	873.3923950195312	-564.8535766601562	662.4728393554688	1581.346313476562	-178.1636810302734	642.3135986328125	1506.71435546875	-115.3181915283203	634.8109130859375	1211.567260742188	-101.1428375244141	642.1539916992188	1211.5693359375	-197.6579284667969	787.67578125	975.3021850585938	-94.64144897460938	710.4864501953125	954.6343994140625	-76.54448699951172	658.5286865234375	1138.926391601562	-83.54238128662109	824.7527465820312	782.3948974609375	-106.3214569091797	820.5778198242188	868.5194091796875	-84.52870941162109	750.6712646484375	857.2705078125	-66.39605712890625	646.635498046875	1766.284423828125	-278.5359191894531	801.2406616210938	1847.798217773438	-412.5298767089844	800.9893188476562	1852.481201171875	-282.6854553222656	636.7528076171875	1764.45751953125	-413.6570739746094	740.1627197265625	1037.779296875	-511.309814453125	759.2077026367188	1029.81005859375	-151.8233337402344	841.515380859375	1105.020385742188	-201.8169708251953	846.6815795898438	1104.4482421875	-467.311279296875	759.3234252929688	537.4923095703125	-482.0735778808594	739.1121215820312	682.1964721679688	-509.6590881347656	643.6259765625	34.10448837280273	-473.2464294433594	656.7211303710938	290.46923828125	-508.9615478515625	873.8869018554688	33.9510383605957	-404.1280517578125	789.8751831054688	41.56404495239258	-376.6156005859375	770.4210205078125	30.99448204040527	-494.9844970703125	572.6586303710938	38.08385848999023	-414.258544921875	740.0783081054688	538.2279052734375	-192.8606109619141	772.8554077148438	817.203369140625	-161.1541290283203	627.3754272460938	29.61947059631348	-216.7489318847656	710.137451171875	406.4465942382812	-184.2374420166016	861.1441040039062	40.55270767211914	-264.6032409667969	800.7698364257812	29.65288543701172	-307.7666015625	760.8734741210938	37.35860443115234	-191.8271026611328	571.3018188476562	32.57571029663086	-266.3559875488281	
148	1.47	636.5377197265625	1125.096313476562	-274.8039855957031	643.7830200195312	1126.392333984375	-409.2384033203125	634.156005859375	1158.135864257812	-344.4497375488281	842.1365356445312	1362.362670898438	-335.1813049316406	591.9760131835938	1304.92724609375	-348.9317016601562	616.5964965820312	1598.529418945312	-363.1390991210938	801.9244995117188	1496.06396484375	-341.8379821777344	565.60986328125	1412.568969726562	-277.7174377441406	615.1041259765625	1576.852905273438	-463.931884765625	706.4801025390625	1565.510864257812	-526.7704467773438	692.7258911132812	1432.885009765625	-596.5166015625	713.7240600585938	1213.7529296875	-613.8413696289062	642.9905395507812	1200.432250976562	-563.0513305664062	819.003173828125	961.9869384765625	-556.3295288085938	741.343505859375	931.8209228515625	-590.3295288085938	734.4788818359375	1098.337768554688	-614.0488891601562	833.42041015625	769.6354370117188	-528.1943969726562	773.0309448242188	858.1170043945312	-587.543212890625	838.7550048828125	873.6082763671875	-564.5617065429688	661.8755493164062	1581.558349609375	-177.7451934814453	641.8051147460938	1506.99658203125	-114.9794998168945	634.2548828125	1211.8359375	-100.7688980102539	641.5919189453125	1211.815551757812	-197.2596130371094	787.0293579101562	975.4985961914062	-94.42877197265625	709.8208618164062	954.8748779296875	-76.27182006835938	657.9530029296875	1139.1884765625	-83.198974609375	823.9880981445312	782.580078125	-106.1825180053711	819.8659057617188	868.70263671875	-84.38410949707031	749.9913940429688	857.4903564453125	-66.15570831298828	646.1314697265625	1766.425415039062	-278.2838745117188	800.8389892578125	1847.927734375	-412.1405029296875	800.5159301757812	1852.578979492188	-282.3148803710938	636.3517456054688	1764.625854492188	-413.39453125	739.4735717773438	1037.929565429688	-511.0806579589844	758.4490356445312	1029.893798828125	-151.4890594482422	840.6641235351562	1105.21826171875	-201.5014343261719	846.0303344726562	1104.682006835938	-466.9630126953125	759.83447265625	537.673828125	-482.1065063476562	739.1863403320312	682.39111328125	-509.5184326171875	643.6965942382812	34.20160675048828	-473.2518005371094	657.0886840820312	290.6247863769531	-508.9072570800781	873.9972534179688	33.76897811889648	-404.0743103027344	789.9187622070312	41.58355712890625	-376.6463012695312	770.4872436523438	30.93256187438965	-495.0934448242188	572.7308959960938	38.33992385864258	-414.2807312011719	740.1920776367188	538.3511962890625	-192.9251556396484	772.3995361328125	817.3364868164062	-160.9488525390625	627.4445190429688	29.72689628601074	-216.7971801757812	710.417236328125	406.4960632324219	-184.2952270507812	861.2518310546875	40.37300872802734	-264.6632385253906	800.8319702148438	29.55176734924316	-307.8160400390625	760.9674682617188	37.43102264404297	-191.9144134521484	571.3954467773438	32.73175048828125	-266.3481750488281	
